<svg width="13" height="12" viewBox="0 0 13 12" fill="none" xmlns="http://www.w3.org/2000/svg">
<path d="M5.40767 11.0104C4.85893 11.5044 4.01357 11.4601 3.51949 10.9114C3.02541 10.3627 3.06971 9.51732 3.61844 9.02324L9.49103 3.73553C10.0398 3.24145 10.8851 3.28576 11.3792 3.83449C11.8733 4.38322 11.829 5.22859 11.2803 5.72267L5.40767 11.0104Z" fill="white"/>
<path d="M5.43932 9.05974C5.9334 9.60847 5.8891 10.4538 5.34037 10.9479C4.79164 11.442 3.94627 11.3977 3.45219 10.849L1.16263 8.30615C0.668552 7.75742 0.712856 6.91205 1.26159 6.41797C1.81032 5.92389 2.65568 5.9682 3.14976 6.51693L5.43932 9.05974Z" fill="white"/>
</svg>
